<mxfile host="app.diagrams.net" agent="Mozilla/5.0 (Windows NT 10.0; Win64; x64) AppleWebKit/537.36 (KHTML, like Gecko) Chrome/131.0.0.0 Safari/537.36 Edg/131.0.0.0" version="25.0.3">
  <diagram name="Page-1" id="fOLxHPSZ4JYc_5_1QAFb">
    <mxGraphModel dx="3794" dy="2772" grid="1" gridSize="10" guides="1" tooltips="1" connect="1" arrows="1" fold="1" page="1" pageScale="1" pageWidth="850" pageHeight="1100" math="0" shadow="0">
      <root>
        <mxCell id="0" />
        <mxCell id="1" parent="0" />
        <mxCell id="ERbHSyHxplKmPu6ZEc1v-1" value="" style="edgeStyle=orthogonalEdgeStyle;rounded=0;orthogonalLoop=1;jettySize=auto;html=1;" edge="1" parent="1" source="ERbHSyHxplKmPu6ZEc1v-2" target="ERbHSyHxplKmPu6ZEc1v-4">
          <mxGeometry relative="1" as="geometry" />
        </mxCell>
        <mxCell id="ERbHSyHxplKmPu6ZEc1v-2" value="&lt;font data-font-src=&quot;https://fonts.googleapis.com/css?family=Sarabun&quot; face=&quot;Sarabun&quot;&gt;Start&lt;/font&gt;" style="ellipse;whiteSpace=wrap;html=1;" vertex="1" parent="1">
          <mxGeometry x="-537.0000000000001" y="-990" width="130" height="30" as="geometry" />
        </mxCell>
        <mxCell id="ERbHSyHxplKmPu6ZEc1v-3" value="" style="edgeStyle=orthogonalEdgeStyle;rounded=0;orthogonalLoop=1;jettySize=auto;html=1;" edge="1" parent="1" source="ERbHSyHxplKmPu6ZEc1v-4" target="ERbHSyHxplKmPu6ZEc1v-6">
          <mxGeometry relative="1" as="geometry" />
        </mxCell>
        <mxCell id="ERbHSyHxplKmPu6ZEc1v-4" value="เปิดไฟล์&amp;nbsp;a15-8.txt&amp;nbsp;&lt;span style=&quot;color: rgba(0, 0, 0, 0); font-family: monospace; font-size: 0px; text-align: start; text-wrap-mode: nowrap;&quot;&gt;%3CmxGraphModel%3E%3Croot%3E%3CmxCell%20id%3D%220%22%2F%3E%3CmxCell%20id%3D%221%22%20parent%3D%220%22%2F%3E%3CmxCell%20id%3D%222%22%20value%3D%22%E0%B8%81%E0%B8%B3%E0%B8%AB%E0%B8%99%E0%B8%94%E0%B8%95%E0%B8%B1%E0%B8%A7%E0%B9%81%E0%B8%9B%E0%B8%A3%20arr%22%20style%3D%22rounded%3D0%3BwhiteSpace%3Dwrap%3Bhtml%3D1%3B%22%20vertex%3D%221%22%20parent%3D%221%22%3E%3CmxGeometry%20x%3D%22-680%22%20y%3D%22-980%22%20width%3D%22160%22%20height%3D%2240%22%20as%3D%22geometry%22%2F%3E%3C%2FmxCell%3E%3C%2Froot%3E%3C%2FmxGraphModel%3E&lt;/span&gt;" style="rounded=0;whiteSpace=wrap;html=1;" vertex="1" parent="1">
          <mxGeometry x="-553" y="-930" width="160" height="40" as="geometry" />
        </mxCell>
        <mxCell id="ERbHSyHxplKmPu6ZEc1v-5" style="edgeStyle=orthogonalEdgeStyle;rounded=0;orthogonalLoop=1;jettySize=auto;html=1;entryX=1;entryY=0.5;entryDx=0;entryDy=0;" edge="1" parent="1" source="ERbHSyHxplKmPu6ZEc1v-6" target="ERbHSyHxplKmPu6ZEc1v-51">
          <mxGeometry relative="1" as="geometry">
            <Array as="points">
              <mxPoint x="-280" y="-820" />
              <mxPoint x="-280" y="465" />
            </Array>
          </mxGeometry>
        </mxCell>
        <mxCell id="ERbHSyHxplKmPu6ZEc1v-6" value="เปิดได้หรือไม่" style="rhombus;whiteSpace=wrap;html=1;" vertex="1" parent="1">
          <mxGeometry x="-537" y="-860" width="128" height="80" as="geometry" />
        </mxCell>
        <mxCell id="ERbHSyHxplKmPu6ZEc1v-7" value="อ่านไฟล์&amp;nbsp;&amp;nbsp;a15-8.txt&amp;nbsp;" style="rounded=0;whiteSpace=wrap;html=1;" vertex="1" parent="1">
          <mxGeometry x="-550" y="-420" width="160" height="40" as="geometry" />
        </mxCell>
        <mxCell id="ERbHSyHxplKmPu6ZEc1v-8" value="T" style="text;html=1;align=center;verticalAlign=middle;resizable=0;points=[];autosize=1;strokeColor=none;fillColor=none;" vertex="1" parent="1">
          <mxGeometry x="-463" y="-790" width="30" height="30" as="geometry" />
        </mxCell>
        <mxCell id="ERbHSyHxplKmPu6ZEc1v-9" value="F" style="text;html=1;align=center;verticalAlign=middle;resizable=0;points=[];autosize=1;strokeColor=none;fillColor=none;" vertex="1" parent="1">
          <mxGeometry x="-413" y="-850" width="30" height="30" as="geometry" />
        </mxCell>
        <mxCell id="ERbHSyHxplKmPu6ZEc1v-10" value="" style="edgeStyle=orthogonalEdgeStyle;rounded=0;orthogonalLoop=1;jettySize=auto;html=1;" edge="1" parent="1">
          <mxGeometry relative="1" as="geometry">
            <mxPoint x="-473" y="-780" as="sourcePoint" />
            <mxPoint x="-473" y="-740" as="targetPoint" />
          </mxGeometry>
        </mxCell>
        <mxCell id="ERbHSyHxplKmPu6ZEc1v-11" value="" style="edgeStyle=orthogonalEdgeStyle;rounded=0;orthogonalLoop=1;jettySize=auto;html=1;" edge="1" parent="1" source="ERbHSyHxplKmPu6ZEc1v-12" target="ERbHSyHxplKmPu6ZEc1v-42">
          <mxGeometry relative="1" as="geometry" />
        </mxCell>
        <mxCell id="ERbHSyHxplKmPu6ZEc1v-12" value="เอาข้อความใน&amp;nbsp;&amp;nbsp;a15-8.txt&amp;nbsp;&amp;nbsp;&lt;div&gt;ใส่ arr data&lt;span style=&quot;white-space: pre;&quot;&gt;&#x9;&lt;/span&gt;&lt;/div&gt;" style="rounded=0;whiteSpace=wrap;html=1;" vertex="1" parent="1">
          <mxGeometry x="-548" y="-255" width="160" height="40" as="geometry" />
        </mxCell>
        <mxCell id="ERbHSyHxplKmPu6ZEc1v-13" value="" style="edgeStyle=orthogonalEdgeStyle;rounded=0;orthogonalLoop=1;jettySize=auto;html=1;" edge="1" parent="1" target="ERbHSyHxplKmPu6ZEc1v-19">
          <mxGeometry relative="1" as="geometry">
            <mxPoint x="-468" y="-380" as="sourcePoint" />
          </mxGeometry>
        </mxCell>
        <mxCell id="ERbHSyHxplKmPu6ZEc1v-14" value="" style="edgeStyle=orthogonalEdgeStyle;rounded=0;orthogonalLoop=1;jettySize=auto;html=1;" edge="1" parent="1" target="ERbHSyHxplKmPu6ZEc1v-17">
          <mxGeometry relative="1" as="geometry">
            <mxPoint x="-468.48571428571427" y="-15" as="sourcePoint" />
          </mxGeometry>
        </mxCell>
        <mxCell id="ERbHSyHxplKmPu6ZEc1v-15" value="" style="edgeStyle=orthogonalEdgeStyle;rounded=0;orthogonalLoop=1;jettySize=auto;html=1;" edge="1" parent="1" source="ERbHSyHxplKmPu6ZEc1v-17">
          <mxGeometry relative="1" as="geometry">
            <mxPoint x="-467.6190476190477" y="130" as="targetPoint" />
          </mxGeometry>
        </mxCell>
        <mxCell id="ERbHSyHxplKmPu6ZEc1v-16" style="edgeStyle=orthogonalEdgeStyle;rounded=0;orthogonalLoop=1;jettySize=auto;html=1;entryX=0;entryY=0.5;entryDx=0;entryDy=0;" edge="1" parent="1" source="ERbHSyHxplKmPu6ZEc1v-17" target="ERbHSyHxplKmPu6ZEc1v-19">
          <mxGeometry relative="1" as="geometry">
            <Array as="points">
              <mxPoint x="-600" y="65" />
              <mxPoint x="-600" y="-325" />
            </Array>
          </mxGeometry>
        </mxCell>
        <mxCell id="ERbHSyHxplKmPu6ZEc1v-17" value="แปลงครบทุกตัวแล้วหรือไม่" style="rhombus;whiteSpace=wrap;html=1;" vertex="1" parent="1">
          <mxGeometry x="-532" y="25" width="128" height="80" as="geometry" />
        </mxCell>
        <mxCell id="ERbHSyHxplKmPu6ZEc1v-18" value="" style="edgeStyle=orthogonalEdgeStyle;rounded=0;orthogonalLoop=1;jettySize=auto;html=1;" edge="1" parent="1" source="ERbHSyHxplKmPu6ZEc1v-19" target="ERbHSyHxplKmPu6ZEc1v-12">
          <mxGeometry relative="1" as="geometry" />
        </mxCell>
        <mxCell id="ERbHSyHxplKmPu6ZEc1v-19" value="" style="ellipse;whiteSpace=wrap;html=1;aspect=fixed;" vertex="1" parent="1">
          <mxGeometry x="-483.5" y="-340" width="30" height="30" as="geometry" />
        </mxCell>
        <mxCell id="ERbHSyHxplKmPu6ZEc1v-20" value="" style="edgeStyle=orthogonalEdgeStyle;rounded=0;orthogonalLoop=1;jettySize=auto;html=1;" edge="1" parent="1" source="ERbHSyHxplKmPu6ZEc1v-21">
          <mxGeometry relative="1" as="geometry">
            <mxPoint x="-470" y="-420" as="targetPoint" />
          </mxGeometry>
        </mxCell>
        <mxCell id="ERbHSyHxplKmPu6ZEc1v-21" value="กำหนดตัวแปร&amp;nbsp;ASCII" style="rounded=0;whiteSpace=wrap;html=1;" vertex="1" parent="1">
          <mxGeometry x="-550" y="-500" width="160" height="40" as="geometry" />
        </mxCell>
        <mxCell id="ERbHSyHxplKmPu6ZEc1v-22" value="" style="edgeStyle=orthogonalEdgeStyle;rounded=0;orthogonalLoop=1;jettySize=auto;html=1;" edge="1" parent="1" source="ERbHSyHxplKmPu6ZEc1v-23" target="ERbHSyHxplKmPu6ZEc1v-24">
          <mxGeometry relative="1" as="geometry" />
        </mxCell>
        <mxCell id="ERbHSyHxplKmPu6ZEc1v-23" value="แปลงข้อมูลเป็น&amp;nbsp;ASCII" style="rounded=0;whiteSpace=wrap;html=1;" vertex="1" parent="1">
          <mxGeometry x="-548" y="-125" width="160" height="40" as="geometry" />
        </mxCell>
        <mxCell id="ERbHSyHxplKmPu6ZEc1v-24" value="เก็บที่แปลงไว้ใน arr ASCII" style="rounded=0;whiteSpace=wrap;html=1;" vertex="1" parent="1">
          <mxGeometry x="-548" y="-55" width="160" height="40" as="geometry" />
        </mxCell>
        <mxCell id="ERbHSyHxplKmPu6ZEc1v-25" style="edgeStyle=orthogonalEdgeStyle;rounded=0;orthogonalLoop=1;jettySize=auto;html=1;exitX=0.5;exitY=1;exitDx=0;exitDy=0;" edge="1" parent="1" source="ERbHSyHxplKmPu6ZEc1v-23" target="ERbHSyHxplKmPu6ZEc1v-23">
          <mxGeometry relative="1" as="geometry" />
        </mxCell>
        <mxCell id="ERbHSyHxplKmPu6ZEc1v-26" value="" style="edgeStyle=orthogonalEdgeStyle;rounded=0;orthogonalLoop=1;jettySize=auto;html=1;" edge="1" parent="1" source="ERbHSyHxplKmPu6ZEc1v-27" target="ERbHSyHxplKmPu6ZEc1v-32">
          <mxGeometry relative="1" as="geometry" />
        </mxCell>
        <mxCell id="ERbHSyHxplKmPu6ZEc1v-27" value="Start Mostmin" style="shape=process;whiteSpace=wrap;html=1;backgroundOutline=1;" vertex="1" parent="1">
          <mxGeometry x="-160" y="-815" width="120" height="60" as="geometry" />
        </mxCell>
        <mxCell id="ERbHSyHxplKmPu6ZEc1v-28" style="edgeStyle=orthogonalEdgeStyle;rounded=0;orthogonalLoop=1;jettySize=auto;html=1;entryX=1;entryY=0.5;entryDx=0;entryDy=0;" edge="1" parent="1" source="ERbHSyHxplKmPu6ZEc1v-29" target="ERbHSyHxplKmPu6ZEc1v-37">
          <mxGeometry relative="1" as="geometry">
            <mxPoint x="79.99999999999977" y="-565" as="targetPoint" />
            <Array as="points">
              <mxPoint x="90" y="-505" />
            </Array>
          </mxGeometry>
        </mxCell>
        <mxCell id="ERbHSyHxplKmPu6ZEc1v-29" value="เรียงจากมากไปน้อย" style="rounded=0;whiteSpace=wrap;html=1;" vertex="1" parent="1">
          <mxGeometry x="30" y="-690" width="120" height="40" as="geometry" />
        </mxCell>
        <mxCell id="ERbHSyHxplKmPu6ZEc1v-30" value="" style="edgeStyle=orthogonalEdgeStyle;rounded=0;orthogonalLoop=1;jettySize=auto;html=1;" edge="1" parent="1" source="ERbHSyHxplKmPu6ZEc1v-32" target="ERbHSyHxplKmPu6ZEc1v-29">
          <mxGeometry relative="1" as="geometry" />
        </mxCell>
        <mxCell id="ERbHSyHxplKmPu6ZEc1v-31" value="" style="edgeStyle=orthogonalEdgeStyle;rounded=0;orthogonalLoop=1;jettySize=auto;html=1;" edge="1" parent="1" source="ERbHSyHxplKmPu6ZEc1v-32" target="ERbHSyHxplKmPu6ZEc1v-34">
          <mxGeometry relative="1" as="geometry" />
        </mxCell>
        <mxCell id="ERbHSyHxplKmPu6ZEc1v-32" value="เรียงจากมากไปน้อย" style="rhombus;whiteSpace=wrap;html=1;" vertex="1" parent="1">
          <mxGeometry x="-160" y="-715" width="120" height="90" as="geometry" />
        </mxCell>
        <mxCell id="ERbHSyHxplKmPu6ZEc1v-33" value="" style="edgeStyle=orthogonalEdgeStyle;rounded=0;orthogonalLoop=1;jettySize=auto;html=1;" edge="1" parent="1" source="ERbHSyHxplKmPu6ZEc1v-34" target="ERbHSyHxplKmPu6ZEc1v-37">
          <mxGeometry relative="1" as="geometry" />
        </mxCell>
        <mxCell id="ERbHSyHxplKmPu6ZEc1v-34" value="เรียงจากน้อยไปมาก" style="rounded=0;whiteSpace=wrap;html=1;" vertex="1" parent="1">
          <mxGeometry x="-160" y="-585" width="120" height="40" as="geometry" />
        </mxCell>
        <mxCell id="ERbHSyHxplKmPu6ZEc1v-35" value="" style="edgeStyle=orthogonalEdgeStyle;rounded=0;orthogonalLoop=1;jettySize=auto;html=1;" edge="1" parent="1" target="ERbHSyHxplKmPu6ZEc1v-40">
          <mxGeometry relative="1" as="geometry">
            <mxPoint x="-100" y="-400" as="sourcePoint" />
          </mxGeometry>
        </mxCell>
        <mxCell id="ERbHSyHxplKmPu6ZEc1v-36" value="" style="edgeStyle=orthogonalEdgeStyle;rounded=0;orthogonalLoop=1;jettySize=auto;html=1;" edge="1" parent="1" source="ERbHSyHxplKmPu6ZEc1v-37">
          <mxGeometry relative="1" as="geometry">
            <mxPoint x="-100" y="-465" as="targetPoint" />
          </mxGeometry>
        </mxCell>
        <mxCell id="ERbHSyHxplKmPu6ZEc1v-37" value="" style="ellipse;whiteSpace=wrap;html=1;aspect=fixed;" vertex="1" parent="1">
          <mxGeometry x="-115" y="-520" width="30" height="30" as="geometry" />
        </mxCell>
        <mxCell id="ERbHSyHxplKmPu6ZEc1v-38" value="T" style="text;html=1;align=center;verticalAlign=middle;resizable=0;points=[];autosize=1;strokeColor=none;fillColor=none;" vertex="1" parent="1">
          <mxGeometry x="-10" y="-705" width="30" height="30" as="geometry" />
        </mxCell>
        <mxCell id="ERbHSyHxplKmPu6ZEc1v-39" value="F" style="text;html=1;align=center;verticalAlign=middle;resizable=0;points=[];autosize=1;strokeColor=none;fillColor=none;" vertex="1" parent="1">
          <mxGeometry x="-100" y="-625" width="30" height="30" as="geometry" />
        </mxCell>
        <mxCell id="ERbHSyHxplKmPu6ZEc1v-40" value="End Mostmin" style="shape=process;whiteSpace=wrap;html=1;backgroundOutline=1;" vertex="1" parent="1">
          <mxGeometry x="-160" y="-365" width="120" height="60" as="geometry" />
        </mxCell>
        <mxCell id="ERbHSyHxplKmPu6ZEc1v-41" style="edgeStyle=orthogonalEdgeStyle;rounded=0;orthogonalLoop=1;jettySize=auto;html=1;entryX=0.5;entryY=0;entryDx=0;entryDy=0;" edge="1" parent="1" source="ERbHSyHxplKmPu6ZEc1v-42" target="ERbHSyHxplKmPu6ZEc1v-23">
          <mxGeometry relative="1" as="geometry" />
        </mxCell>
        <mxCell id="ERbHSyHxplKmPu6ZEc1v-42" value="ปริ้น data" style="rounded=0;whiteSpace=wrap;html=1;" vertex="1" parent="1">
          <mxGeometry x="-548" y="-195" width="160" height="40" as="geometry" />
        </mxCell>
        <mxCell id="ERbHSyHxplKmPu6ZEc1v-43" value="T" style="text;html=1;align=center;verticalAlign=middle;resizable=0;points=[];autosize=1;strokeColor=none;fillColor=none;" vertex="1" parent="1">
          <mxGeometry x="-500" y="95" width="30" height="30" as="geometry" />
        </mxCell>
        <mxCell id="ERbHSyHxplKmPu6ZEc1v-44" value="F" style="text;html=1;align=center;verticalAlign=middle;resizable=0;points=[];autosize=1;strokeColor=none;fillColor=none;" vertex="1" parent="1">
          <mxGeometry x="-590" y="35" width="30" height="30" as="geometry" />
        </mxCell>
        <mxCell id="ERbHSyHxplKmPu6ZEc1v-45" value="" style="edgeStyle=orthogonalEdgeStyle;rounded=0;orthogonalLoop=1;jettySize=auto;html=1;" edge="1" parent="1" source="ERbHSyHxplKmPu6ZEc1v-46" target="ERbHSyHxplKmPu6ZEc1v-48">
          <mxGeometry relative="1" as="geometry" />
        </mxCell>
        <mxCell id="ERbHSyHxplKmPu6ZEc1v-46" value="Mostmin&lt;div&gt;(มากไปน้อย)&lt;/div&gt;" style="shape=process;whiteSpace=wrap;html=1;backgroundOutline=1;" vertex="1" parent="1">
          <mxGeometry x="-529" y="230" width="120" height="60" as="geometry" />
        </mxCell>
        <mxCell id="ERbHSyHxplKmPu6ZEc1v-47" value="" style="edgeStyle=orthogonalEdgeStyle;rounded=0;orthogonalLoop=1;jettySize=auto;html=1;" edge="1" parent="1" source="ERbHSyHxplKmPu6ZEc1v-48" target="ERbHSyHxplKmPu6ZEc1v-51">
          <mxGeometry relative="1" as="geometry" />
        </mxCell>
        <mxCell id="ERbHSyHxplKmPu6ZEc1v-48" value="Mostmin&lt;div&gt;(น้อยไปมาก)&lt;/div&gt;" style="shape=process;whiteSpace=wrap;html=1;backgroundOutline=1;" vertex="1" parent="1">
          <mxGeometry x="-529" y="330" width="120" height="60" as="geometry" />
        </mxCell>
        <mxCell id="ERbHSyHxplKmPu6ZEc1v-49" value="&lt;font data-font-src=&quot;https://fonts.googleapis.com/css?family=Sarabun&quot; face=&quot;Sarabun&quot;&gt;Start&lt;/font&gt;" style="ellipse;whiteSpace=wrap;html=1;" vertex="1" parent="1">
          <mxGeometry x="-534.0000000000001" y="550" width="130" height="30" as="geometry" />
        </mxCell>
        <mxCell id="ERbHSyHxplKmPu6ZEc1v-50" value="" style="edgeStyle=orthogonalEdgeStyle;rounded=0;orthogonalLoop=1;jettySize=auto;html=1;" edge="1" parent="1" source="ERbHSyHxplKmPu6ZEc1v-51" target="ERbHSyHxplKmPu6ZEc1v-49">
          <mxGeometry relative="1" as="geometry" />
        </mxCell>
        <mxCell id="ERbHSyHxplKmPu6ZEc1v-51" value="" style="ellipse;whiteSpace=wrap;html=1;aspect=fixed;" vertex="1" parent="1">
          <mxGeometry x="-484" y="450" width="30" height="30" as="geometry" />
        </mxCell>
        <mxCell id="ERbHSyHxplKmPu6ZEc1v-52" value="" style="edgeStyle=orthogonalEdgeStyle;rounded=0;orthogonalLoop=1;jettySize=auto;html=1;" edge="1" parent="1" source="ERbHSyHxplKmPu6ZEc1v-53" target="ERbHSyHxplKmPu6ZEc1v-67">
          <mxGeometry relative="1" as="geometry" />
        </mxCell>
        <mxCell id="ERbHSyHxplKmPu6ZEc1v-53" value="Start Display" style="shape=process;whiteSpace=wrap;html=1;backgroundOutline=1;" vertex="1" parent="1">
          <mxGeometry x="220" y="-570" width="120" height="60" as="geometry" />
        </mxCell>
        <mxCell id="ERbHSyHxplKmPu6ZEc1v-54" value="End Display" style="shape=process;whiteSpace=wrap;html=1;backgroundOutline=1;" vertex="1" parent="1">
          <mxGeometry x="520" y="-352.5" width="120" height="60" as="geometry" />
        </mxCell>
        <mxCell id="ERbHSyHxplKmPu6ZEc1v-55" value="" style="edgeStyle=orthogonalEdgeStyle;rounded=0;orthogonalLoop=1;jettySize=auto;html=1;" edge="1" parent="1" source="ERbHSyHxplKmPu6ZEc1v-56" target="ERbHSyHxplKmPu6ZEc1v-65">
          <mxGeometry relative="1" as="geometry" />
        </mxCell>
        <mxCell id="ERbHSyHxplKmPu6ZEc1v-56" value="ปริ้นค่า&amp;nbsp;" style="rounded=0;whiteSpace=wrap;html=1;shape=parallelogram;perimeter=parallelogramPerimeter;fixedSize=1;" vertex="1" parent="1">
          <mxGeometry x="180" y="-440" width="200" height="40" as="geometry" />
        </mxCell>
        <mxCell id="ERbHSyHxplKmPu6ZEc1v-57" value="" style="edgeStyle=orthogonalEdgeStyle;rounded=0;orthogonalLoop=1;jettySize=auto;html=1;" edge="1" parent="1" source="ERbHSyHxplKmPu6ZEc1v-58">
          <mxGeometry relative="1" as="geometry">
            <mxPoint x="-470" y="-500" as="targetPoint" />
          </mxGeometry>
        </mxCell>
        <mxCell id="ERbHSyHxplKmPu6ZEc1v-58" value="กำหนดตัวแปร&amp;nbsp;data" style="rounded=0;whiteSpace=wrap;html=1;" vertex="1" parent="1">
          <mxGeometry x="-550" y="-580" width="160" height="40" as="geometry" />
        </mxCell>
        <mxCell id="ERbHSyHxplKmPu6ZEc1v-59" value="" style="edgeStyle=orthogonalEdgeStyle;rounded=0;orthogonalLoop=1;jettySize=auto;html=1;" edge="1" parent="1" source="ERbHSyHxplKmPu6ZEc1v-60">
          <mxGeometry relative="1" as="geometry">
            <mxPoint x="-468" y="-580" as="targetPoint" />
          </mxGeometry>
        </mxCell>
        <mxCell id="ERbHSyHxplKmPu6ZEc1v-60" value="กำหนดตัวแปร&amp;nbsp;order" style="rounded=0;whiteSpace=wrap;html=1;" vertex="1" parent="1">
          <mxGeometry x="-548" y="-660" width="160" height="40" as="geometry" />
        </mxCell>
        <mxCell id="ERbHSyHxplKmPu6ZEc1v-61" value="กำหนดตัวแปร&amp;nbsp;n" style="rounded=0;whiteSpace=wrap;html=1;" vertex="1" parent="1">
          <mxGeometry x="-550" y="-740" width="160" height="40" as="geometry" />
        </mxCell>
        <mxCell id="ERbHSyHxplKmPu6ZEc1v-62" value="" style="edgeStyle=orthogonalEdgeStyle;rounded=0;orthogonalLoop=1;jettySize=auto;html=1;" edge="1" parent="1" source="ERbHSyHxplKmPu6ZEc1v-61">
          <mxGeometry relative="1" as="geometry">
            <mxPoint x="-470" y="-660" as="targetPoint" />
          </mxGeometry>
        </mxCell>
        <mxCell id="ERbHSyHxplKmPu6ZEc1v-63" value="" style="edgeStyle=orthogonalEdgeStyle;rounded=0;orthogonalLoop=1;jettySize=auto;html=1;" edge="1" parent="1" source="ERbHSyHxplKmPu6ZEc1v-65" target="ERbHSyHxplKmPu6ZEc1v-69">
          <mxGeometry relative="1" as="geometry" />
        </mxCell>
        <mxCell id="ERbHSyHxplKmPu6ZEc1v-64" value="" style="edgeStyle=orthogonalEdgeStyle;rounded=0;orthogonalLoop=1;jettySize=auto;html=1;" edge="1" parent="1" source="ERbHSyHxplKmPu6ZEc1v-65" target="ERbHSyHxplKmPu6ZEc1v-71">
          <mxGeometry relative="1" as="geometry" />
        </mxCell>
        <mxCell id="ERbHSyHxplKmPu6ZEc1v-65" value="เป็นตัวสุดท้ายหรือไม่" style="rhombus;whiteSpace=wrap;html=1;" vertex="1" parent="1">
          <mxGeometry x="227.69000000000005" y="-365" width="104.62" height="85" as="geometry" />
        </mxCell>
        <mxCell id="ERbHSyHxplKmPu6ZEc1v-66" style="edgeStyle=orthogonalEdgeStyle;rounded=0;orthogonalLoop=1;jettySize=auto;html=1;" edge="1" parent="1" source="ERbHSyHxplKmPu6ZEc1v-67">
          <mxGeometry relative="1" as="geometry">
            <mxPoint x="280" y="-445" as="targetPoint" />
          </mxGeometry>
        </mxCell>
        <mxCell id="ERbHSyHxplKmPu6ZEc1v-67" value="" style="ellipse;whiteSpace=wrap;html=1;aspect=fixed;" vertex="1" parent="1">
          <mxGeometry x="270" y="-485" width="20" height="20" as="geometry" />
        </mxCell>
        <mxCell id="ERbHSyHxplKmPu6ZEc1v-68" value="" style="edgeStyle=orthogonalEdgeStyle;rounded=0;orthogonalLoop=1;jettySize=auto;html=1;" edge="1" parent="1" source="ERbHSyHxplKmPu6ZEc1v-69" target="ERbHSyHxplKmPu6ZEc1v-54">
          <mxGeometry relative="1" as="geometry" />
        </mxCell>
        <mxCell id="ERbHSyHxplKmPu6ZEc1v-69" value="ปริ้น ." style="rounded=0;whiteSpace=wrap;html=1;shape=parallelogram;perimeter=parallelogramPerimeter;fixedSize=1;" vertex="1" parent="1">
          <mxGeometry x="360" y="-342.5" width="120" height="40" as="geometry" />
        </mxCell>
        <mxCell id="ERbHSyHxplKmPu6ZEc1v-70" style="edgeStyle=orthogonalEdgeStyle;rounded=0;orthogonalLoop=1;jettySize=auto;html=1;entryX=0;entryY=0.5;entryDx=0;entryDy=0;" edge="1" parent="1" source="ERbHSyHxplKmPu6ZEc1v-71" target="ERbHSyHxplKmPu6ZEc1v-67">
          <mxGeometry relative="1" as="geometry">
            <Array as="points">
              <mxPoint x="280" y="-185" />
              <mxPoint x="150" y="-185" />
              <mxPoint x="150" y="-475" />
            </Array>
          </mxGeometry>
        </mxCell>
        <mxCell id="ERbHSyHxplKmPu6ZEc1v-71" value="ปริ้น ," style="rounded=0;whiteSpace=wrap;html=1;shape=parallelogram;perimeter=parallelogramPerimeter;fixedSize=1;" vertex="1" parent="1">
          <mxGeometry x="220" y="-250" width="120" height="40" as="geometry" />
        </mxCell>
        <mxCell id="ERbHSyHxplKmPu6ZEc1v-72" value="T" style="text;html=1;align=center;verticalAlign=middle;resizable=0;points=[];autosize=1;strokeColor=none;fillColor=none;" vertex="1" parent="1">
          <mxGeometry x="330" y="-355" width="30" height="30" as="geometry" />
        </mxCell>
        <mxCell id="ERbHSyHxplKmPu6ZEc1v-73" value="F" style="text;html=1;align=center;verticalAlign=middle;resizable=0;points=[];autosize=1;strokeColor=none;fillColor=none;" vertex="1" parent="1">
          <mxGeometry x="280" y="-290" width="30" height="30" as="geometry" />
        </mxCell>
        <mxCell id="ERbHSyHxplKmPu6ZEc1v-74" value="Display" style="shape=process;whiteSpace=wrap;html=1;backgroundOutline=1;" vertex="1" parent="1">
          <mxGeometry x="-160" y="-460" width="120" height="60" as="geometry" />
        </mxCell>
        <mxCell id="ERbHSyHxplKmPu6ZEc1v-75" value="" style="edgeStyle=orthogonalEdgeStyle;rounded=0;orthogonalLoop=1;jettySize=auto;html=1;" edge="1" parent="1" source="ERbHSyHxplKmPu6ZEc1v-76" target="ERbHSyHxplKmPu6ZEc1v-46">
          <mxGeometry relative="1" as="geometry" />
        </mxCell>
        <mxCell id="ERbHSyHxplKmPu6ZEc1v-76" value="Display" style="shape=process;whiteSpace=wrap;html=1;backgroundOutline=1;" vertex="1" parent="1">
          <mxGeometry x="-528.5" y="130" width="120" height="60" as="geometry" />
        </mxCell>
      </root>
    </mxGraphModel>
  </diagram>
</mxfile>
